<svg xmlns="http://www.w3.org/2000/svg" viewBox="0 0 69.5 69.5"><defs><style>.cls-1{fill:#0785c5;}</style></defs><title>Asset 7</title><g id="Layer_2" data-name="Layer 2"><g id="Layer_1-2" data-name="Layer 1"><path class="cls-1" d="M34.75 69.5A34.75 34.75 0 1 1 69.5 34.75 34.79 34.79 0 0 1 34.75 69.5zm0-67.5A32.75 32.75 0 1 0 67.5 34.75 32.79 32.79 0 0 0 34.75 2z"/><path class="cls-1" d="M50.89 51.89a1 1 0 0 1-.68-.26l-17.6-16.14a1 1 0 0 1-.32-.74V18.61a1 1 0 0 1 2 0v15.7l17.28 15.84a1 1 0 0 1-.68 1.74z"/></g></g></svg>