<svg xmlns="http://www.w3.org/2000/svg" viewBox="0 0 64.72 64.72"><defs><style>.cls-1{fill:#0785c5;}</style></defs><title>Asset 41</title><g id="Layer_2" data-name="Layer 2"><g id="Layer_1-2" data-name="Layer 1"><path class="cls-1" d="M63.84 64.72H.88a.88.88 0 0 1 0-1.72h63a.87.87 0 0 1 0 1.75z"/><path class="cls-1" d="M11.83 64.72H3.61a.87.87 0 0 1-.87-.88V50.15a.87.87 0 0 1 .88-.87h8.21a.87.87 0 0 1 .88.88v13.68a.87.87 0 0 1-.88.88zM4.49 63H11V51H4.49zM28.25 64.72H20a.87.87 0 0 1-.87-.88V36.46a.87.87 0 0 1 .88-.87h8.21a.87.87 0 0 1 .88.88v27.37a.87.87 0 0 1-.85.88zM20.91 63h6.46V37.34h-6.46zM44.68 64.72h-8.21a.87.87 0 0 1-.87-.88v-21.9a.87.87 0 0 1 .88-.87h8.21a.87.87 0 0 1 .88.88v21.9a.87.87 0 0 1-.89.87zM37.34 63h6.46V42.82h-6.46zM61.1 64.72h-8.21a.87.87 0 0 1-.87-.88V22.78a.87.87 0 0 1 .88-.87h8.2a.87.87 0 0 1 .88.88v41.05a.87.87 0 0 1-.88.88zM53.77 63h6.46V23.65h-6.46zM7.72 34.6a3.61 3.61 0 1 1 3.61-3.6 3.62 3.62 0 0 1-3.61 3.6zm0-5.48A1.86 1.86 0 1 0 9.58 31a1.86 1.86 0 0 0-1.86-1.87zM24.15 20.91a3.61 3.61 0 1 1 3.61-3.61 3.62 3.62 0 0 1-3.61 3.61zm0-5.48A1.86 1.86 0 1 0 26 17.3a1.86 1.86 0 0 0-1.85-1.86zM40.57 26.39a3.61 3.61 0 1 1 3.61-3.61 3.62 3.62 0 0 1-3.61 3.61zm0-5.48a1.86 1.86 0 1 0 1.86 1.86 1.86 1.86 0 0 0-1.86-1.86zM57 7.23a3.61 3.61 0 1 1 3.61-3.61A3.62 3.62 0 0 1 57 7.23zm0-5.48a1.86 1.86 0 1 0 1.86 1.86A1.86 1.86 0 0 0 57 1.75z"/><path class="cls-1" d="M9.82 30.11a.87.87 0 0 1-.56-1.55l12.22-10.18a.87.87 0 1 1 1.12 1.34L10.38 29.91a.87.87 0 0 1-.56.2zM26.453 18.988l.553-1.66 11.318 3.77-.553 1.662zM42.35 21.57a.88.88 0 0 1-.66-1.44l12.87-15a.88.88 0 0 1 1.33 1.14L43 21.27a.87.87 0 0 1-.65.3z"/></g></g></svg>