<svg xmlns="http://www.w3.org/2000/svg" viewBox="0 0 77.98 78.37"><defs><style>.cls-1{fill:#0785c5;}</style></defs><title>Asset 3</title><g id="Layer_2" data-name="Layer 2"><g id="Layer_1-2" data-name="Layer 1"><path class="cls-1" d="M11 52.2a4.15 4.15 0 0 1-4.07-3.39L.07 11.75a4.15 4.15 0 0 1 3.32-4.82L40.45.07a4.15 4.15 0 0 1 4.83 3.32l4.14 22.38a1 1 0 1 1-2 .36L43.31 3.75A2.15 2.15 0 0 0 40.81 2L3.75 8.89A2.15 2.15 0 0 0 2 11.39l6.89 37.06a2.14 2.14 0 0 0 2.5 1.72l15-2.77a1 1 0 0 1 .36 2l-15 2.77a4.15 4.15 0 0 1-.75.03z"/><path class="cls-1" d="M16.71 38.39a2.57 2.57 0 0 1-.46-5.1 2.57 2.57 0 1 1 .94 5.05 2.59 2.59 0 0 1-.48.05zm0-3.14h-.11a.57.57 0 0 0-.22 1 .58.58 0 0 0 .43.09.56.56 0 0 0 .37-.24.57.57 0 0 0-.47-.89zM13.86 23a2.57 2.57 0 0 1-.46-5.1 2.57 2.57 0 1 1 .93 5.06 2.59 2.59 0 0 1-.47.04zm-.1-3.13a.57.57 0 0 0-.22 1 .57.57 0 0 0 .79-.15.57.57 0 0 0-.57-.88zM35.48 19a2.58 2.58 0 1 1 .47 0 2.59 2.59 0 0 1-.47 0zm0-3.14h-.11a.57.57 0 0 0-.22 1 .56.56 0 0 0 .43.09.57.57 0 0 0-.1-1.13zM60.37 78.37a4.1 4.1 0 0 1-1.47-.27L23.69 64.63a4.15 4.15 0 0 1-2.39-5.35l13.47-35.2a4.15 4.15 0 0 1 5.35-2.39l35.2 13.47a4.15 4.15 0 0 1 2.39 5.35l-13.47 35.2a4.17 4.17 0 0 1-3.87 2.66zm-21.73-55a2.14 2.14 0 0 0-2 1.38L23.17 60a2.14 2.14 0 0 0 1.23 2.77l35.2 13.47A2.15 2.15 0 0 0 62.37 75l13.47-35.2A2.14 2.14 0 0 0 74.6 37L39.4 23.56a2.14 2.14 0 0 0-.76-.14z"/><path class="cls-1" d="M46.1 39.4a2.57 2.57 0 1 1 1-.22 2.56 2.56 0 0 1-1 .22zm0-3.14a.57.57 0 0 0-.53.37.57.57 0 0 0 .33.74.57.57 0 0 0 .74-.33.57.57 0 0 0-.53-.78zM60.76 45a2.57 2.57 0 1 1 2.4-1.65 2.56 2.56 0 0 1-2.4 1.65zm0-3.14a.57.57 0 0 0-.53.37.57.57 0 1 0 .53-.37zM56.84 55.28a2.57 2.57 0 1 1 .92-5 2.57 2.57 0 0 1-.92 5zm0-3.14a.57.57 0 1 0 .23 1.09.57.57 0 0 0-.23-1.09zM42.17 49.66a2.57 2.57 0 1 1 .92-5 2.57 2.57 0 0 1-.92 5zm0-3.14a.57.57 0 0 0-.2 1.1.57.57 0 0 0 .74-.33.57.57 0 0 0-.53-.77zM38.24 59.93A2.57 2.57 0 0 1 37.19 55a2.54 2.54 0 0 1 2-.05 2.57 2.57 0 0 1-.92 5zm0-3.14a.57.57 0 0 0-.53.37.57.57 0 1 0 .53-.37zM52.91 65.54a2.57 2.57 0 1 1 2.4-1.65 2.56 2.56 0 0 1-2.4 1.65zm0-3.14a.57.57 0 0 0-.53.37.57.57 0 1 0 .53-.37z"/></g></g></svg>