<svg xmlns="http://www.w3.org/2000/svg" viewBox="0 0 74.66 71.49"><defs><style>.cls-1{fill:#0785c5;}</style></defs><title>Asset 10</title><g id="Layer_2" data-name="Layer 2"><g id="Layer_1-2" data-name="Layer 1"><path class="cls-1" d="M64.18 71.49h-19a1 1 0 0 1-1-1V49.38H30.43v21.11a1 1 0 0 1-1 1h-19a1 1 0 0 1-1-1V38.9a1 1 0 1 1 2 0v30.59h17V48.38a1 1 0 0 1 1-1h15.8a1 1 0 0 1 1 1v21.11h17v-29a1 1 0 0 1 2 0v30a1 1 0 0 1-1.05 1z"/><path class="cls-1" d="M1 38.32a1 1 0 0 1-.71-1.71L36.62.28a1 1 0 0 1 1.38 0l36.37 36.33A1 1 0 0 1 73 38L37.33 2.4 1.71 38a1 1 0 0 1-.71.32zM61 16.2a1 1 0 0 1-1-1V5.15H50a1 1 0 0 1 0-2h11a1 1 0 0 1 1 1V15.2a1 1 0 0 1-1 1z"/></g></g></svg>