<svg xmlns="http://www.w3.org/2000/svg" viewBox="0 0 77.3 77.3"><defs><style>.cls-1{fill:#0785c5;}</style></defs><title>Asset 5</title><g id="Layer_2" data-name="Layer 2"><g id="Layer_1-2" data-name="Layer 1"><path class="cls-1" d="M37 41.29a1 1 0 0 1-1-1V1a1 1 0 0 1 2 0v39.29a1 1 0 0 1-1 1z"/><path class="cls-1" d="M37 41.29a1 1 0 0 1-.71-.29L23.21 27.9a1 1 0 0 1 1.41-1.41L37 38.87l12.4-12.38a1 1 0 0 1 1.41 1.41L37.72 41a1 1 0 0 1-.72.29z"/><path class="cls-1" d="M76.3 57.66H1A1 1 0 0 1 .23 56L16.6 36.37a1 1 0 0 1 .77-.36h3.27a1 1 0 0 1 0 2h-2.8L3.14 55.66h71L59.46 38H55a1 1 0 1 1 0-2h4.91a1 1 0 0 1 .77.36L77.07 56a1 1 0 0 1-.77 1.64zM64.84 67.48H51.75a1 1 0 0 1 0-2h13.1a1 1 0 0 1 0 2z"/><path class="cls-1" d="M69.76 77.3H7.55A7.56 7.56 0 0 1 0 69.76v-13.1a1 1 0 1 1 2 0v13.1a5.55 5.55 0 0 0 5.55 5.54h62.21a5.55 5.55 0 0 0 5.55-5.55V56.66a1 1 0 0 1 2 0v13.1a7.56 7.56 0 0 1-7.55 7.54z"/></g></g></svg>