<svg xmlns="http://www.w3.org/2000/svg" viewBox="0 0 80.09 54.06"><defs><style>.cls-1{fill:#0785c5;}</style></defs><title>Asset 8</title><g id="Layer_2" data-name="Layer 2"><g id="Layer_1-2" data-name="Layer 1"><path class="cls-1" d="M73.52 54.06H6.58A6.59 6.59 0 0 1 0 47.48V6.58A6.59 6.59 0 0 1 6.58 0h66.94a6.59 6.59 0 0 1 6.58 6.58v40.9a6.59 6.59 0 0 1-6.58 6.58zM6.58 2A4.58 4.58 0 0 0 2 6.58v40.9a4.58 4.58 0 0 0 4.58 4.58h66.94a4.58 4.58 0 0 0 4.58-4.58V6.58A4.58 4.58 0 0 0 73.52 2z"/><path class="cls-1" d="M40 33.61a1 1 0 0 1-.62-.22L2.23 3.64a1 1 0 0 1 1.25-1.56L40 31.33 76.61 2.08a1 1 0 0 1 1.25 1.56L40.67 33.39a1 1 0 0 1-.67.22z"/></g></g></svg>