<svg xmlns="http://www.w3.org/2000/svg" viewBox="0 0 64.72 59.24"><defs><style>.cls-1{fill:#0785c5;}</style></defs><title>Asset 42</title><g id="Layer_2" data-name="Layer 2"><g id="Layer_1-2" data-name="Layer 1"><path class="cls-1" d="M31 45.55a22.78 22.78 0 0 1-22-17 .87.87 0 1 1 1.69-.44 21 21 0 1 0 0-10.57.87.87 0 1 1-1.7-.43A22.78 22.78 0 1 1 31 45.55z"/><path class="cls-1" d="M63.84 59.24a.87.87 0 0 1-.62-.26L44.43 40.19A.88.88 0 0 1 45.66 39l18.8 18.79a.88.88 0 0 1-.62 1.49zM28.25 32h-.07a.87.87 0 0 1-.76-.61l-4.89-15.91-4.47 7.73a.88.88 0 0 1-.76.44H.88a.88.88 0 0 1 0-1.75H16.8l5.22-9a.88.88 0 0 1 1.59.18l4.83 15.71L34.31 17a.88.88 0 0 1 .73-.48.9.9 0 0 1 .78.39l4.8 7.2 4.67-6a.87.87 0 1 1 1.38 1.07l-5.42 7a.89.89 0 0 1-.72.34.87.87 0 0 1-.7-.39l-4.64-7L29 31.5a.87.87 0 0 1-.75.5z"/></g></g></svg>