<svg xmlns="http://www.w3.org/2000/svg" viewBox="0 0 51.03 64.72"><defs><style>.cls-1{fill:#0785c5;}</style></defs><title>Asset 39</title><g id="Layer_2" data-name="Layer 2"><g id="Layer_1-2" data-name="Layer 1"><path class="cls-1" d="M50.15 64.72H.88a.87.87 0 0 1-.88-.88V6.35a.87.87 0 0 1 .88-.87h5.47a.88.88 0 0 1 0 1.75h-4.6V63h47.53V7.23h-4.6a.87.87 0 0 1 0-1.75h5.48a.87.87 0 0 1 .88.88v57.48a.87.87 0 0 1-.89.88z"/><path class="cls-1" d="M39.2 12.7H11.83a.87.87 0 0 1-.87-.87V6.35a.87.87 0 0 1 .88-.87h7.4a6.35 6.35 0 0 1 12.58 0h7.4a.87.87 0 0 1 .88.88v5.48a.87.87 0 0 1-.9.86zM12.7 11h25.63V7.23H31a.87.87 0 0 1-.87-.87 4.6 4.6 0 1 0-9.2 0 .87.87 0 0 1-.87.88H12.7zm19.16-4.6z"/><path class="cls-1" d="M44.68 59.24H6.35a.87.87 0 0 1-.87-.87V11.83a.87.87 0 0 1 1.75 0v45.66H43.8V11.83a.88.88 0 1 1 1.75 0v46.54a.87.87 0 0 1-.87.87z"/><path class="cls-1" d="M36.46 23.65H20a.88.88 0 0 1 0-1.75h16.46a.88.88 0 0 1 0 1.75zM36.46 31.87H20a.87.87 0 0 1 0-1.75h16.46a.88.88 0 0 1 0 1.75zM36.46 40.08H20a.88.88 0 0 1 0-1.75h16.46a.88.88 0 0 1 0 1.75zM36.46 48.29H20a.87.87 0 0 1 0-1.75h16.46a.87.87 0 0 1 0 1.75zM14.56 23.65h-1.37a.88.88 0 0 1 0-1.75h1.37a.88.88 0 0 1 0 1.75zM14.56 31.87h-1.37a.88.88 0 1 1 0-1.75h1.37a.88.88 0 1 1 0 1.75zM14.56 40.08h-1.37a.88.88 0 0 1 0-1.75h1.37a.88.88 0 0 1 0 1.75zM14.56 48.29h-1.37a.88.88 0 0 1 0-1.75h1.37a.88.88 0 0 1 0 1.75z"/></g></g></svg>