<svg xmlns="http://www.w3.org/2000/svg" viewBox="0 0 67.62 77"><defs><style>.cls-1{fill:#0785c5;}</style></defs><title>Asset 16</title><g id="Layer_2" data-name="Layer 2"><g id="Layer_1-2" data-name="Layer 1"><path class="cls-1" d="M39.31 49.8a21.85 21.85 0 0 1-21.46-20.62 18.16 18.16 0 0 1 5.21-13.83L35.8 2.61 37.21 4 24.48 16.76a16.18 16.18 0 0 0-4.62 12.33A19.45 19.45 0 0 0 25.63 42c7.27 7.27 18.59 7.79 25.22 1.16L63.6 30.41a1 1 0 0 1 1.4 1.41L52.27 44.56a18.15 18.15 0 0 1-12.96 5.24z"/><path class="cls-1" d="M64.3 32.11a1 1 0 0 1-.71-.29L35.8 4a1 1 0 0 1 1.41-1.41L65 30.41a1 1 0 0 1-.71 1.71z"/><path class="cls-1" d="M43.46 11.26a1 1 0 0 1-.71-1.71L52 .29a1 1 0 0 1 1.41 1.41L44.16 11a1 1 0 0 1-.7.26zM57.36 25.16a1 1 0 0 1-.71-1.71l9.26-9.26a1 1 0 0 1 1.41 1.41l-9.26 9.26a1 1 0 0 1-.7.3zM55 32.11a1 1 0 0 1-.71-.29L35.8 13.29a1 1 0 0 1 1.41-1.41l18.53 18.53a1 1 0 0 1-.74 1.7zM35.35 38.18a5.91 5.91 0 1 1 4.18-1.73 5.87 5.87 0 0 1-4.18 1.73zm0-9.82A3.91 3.91 0 0 0 32.58 35a4 4 0 0 0 5.53 0 3.91 3.91 0 0 0-2.77-6.68zm3.47 7.38zM21.45 54.12a1 1 0 0 1-.71-.29l-6.95-6.95a1 1 0 0 1 0-1.41l7.35-7.35a1 1 0 0 1 1.41 1.41l-6.64 6.64 5.53 5.53 6.64-6.64a1 1 0 0 1 1.41 1.41l-7.35 7.35a1 1 0 0 1-.69.3z"/><path class="cls-1" d="M24 77a1 1 0 0 1-.71-1.71l5.51-5.51a3.92 3.92 0 0 0 0-5.53 4 4 0 0 0-5.54 0L12.89 74.67A7.55 7.55 0 1 1 2.21 64l15.06-15.06a1 1 0 0 1 1.41 1.41L3.63 65.41a5.55 5.55 0 1 0 7.85 7.85L21.9 62.84a5.91 5.91 0 0 1 8.37 8.36l-5.51 5.51A1 1 0 0 1 24 77z"/></g></g></svg>