<svg xmlns="http://www.w3.org/2000/svg" viewBox="0 0 62.32 51.78"><defs><style>.cls-1{fill:#0785c5;}</style></defs><title>Asset 11</title><g id="Layer_2" data-name="Layer 2"><g id="Layer_1-2" data-name="Layer 1"><path class="cls-1" d="M50.17 51.78a.87.87 0 0 1-.62-.26L46 48a.87.87 0 0 1 0-1.21l3.39-3.67H.88a.87.87 0 0 1-.88-.91v-5.16a.88.88 0 0 1 .88-.87H49.4L46 32.52a.87.87 0 0 1 0-1.22l3.56-3.56a.87.87 0 0 1 1.24 0L62.07 39a.88.88 0 0 1 0 1.24L50.79 51.52a.88.88 0 0 1-.62.26zm-2.35-4.46l2.35 2.35 10-10-10-10-2.34 2.34L52 36.47a.88.88 0 0 1-.64 1.47H1.7v3.41h49.66A.87.87 0 0 1 52 42.8zM50.17 24.3a.87.87 0 0 1-.62-.26L46 20.48a.88.88 0 0 1 0-1.21l3.39-3.67H.88a.87.87 0 0 1-.88-.88V9.57a.88.88 0 0 1 .88-.87H49.4L46 5a.87.87 0 0 1 0-1.22L49.56.26a.87.87 0 0 1 1.24 0l11.27 11.27a.88.88 0 0 1 0 1.24L50.79 24a.87.87 0 0 1-.62.3zm-2.35-4.46l2.35 2.35 10-10-10-10-2.34 2.27L52 9a.88.88 0 0 1-.64 1.47H1.7v3.4h49.66a.87.87 0 0 1 .64 1.45z"/></g></g></svg>