<svg xmlns="http://www.w3.org/2000/svg" viewBox="0 0 68.68 68.68"><defs><style>.cls-1{fill:#0785c5;}</style></defs><title>Asset 9</title><g id="Layer_2" data-name="Layer 2"><path class="cls-1" d="M54.11 68.68a11.49 11.49 0 0 1-6.35-1.9A163.77 163.77 0 0 1 1.9 20.92 11.56 11.56 0 0 1 3.36 6.43l4.07-4.08a8 8 0 0 1 11.33 0l7.44 7.44a8 8 0 0 1 0 11.33L24.37 23a164.84 164.84 0 0 0 21.35 21.31l1.84-1.84a8 8 0 0 1 5.67-2.35 8 8 0 0 1 5.66 2.35l7.44 7.44a8 8 0 0 1 0 11.33l-4.08 4.08a11.5 11.5 0 0 1-8.14 3.36zM13.1 2a6 6 0 0 0-4.25 1.76L4.77 7.84a9.55 9.55 0 0 0-1.2 12 161.75 161.75 0 0 0 45.29 45.27 9.54 9.54 0 0 0 12-1.2l4.08-4.08a6 6 0 0 0 0-8.5l-7.44-7.44a6 6 0 0 0-4.25-1.76A6 6 0 0 0 49 43.89l-2.5 2.48a1 1 0 0 1-1.34.07 166.61 166.61 0 0 1-22.92-22.92 1 1 0 0 1 .07-1.34l2.48-2.48a6 6 0 0 0 0-8.5l-7.44-7.44A6 6 0 0 0 13.1 2zm12.4 18.41z" id="Layer_1-2" data-name="Layer 1"/></g></svg>