<svg xmlns="http://www.w3.org/2000/svg" viewBox="0 0 56.5 64.72"><defs><style>.cls-1{fill:#0785c5;}</style></defs><title>Asset 40</title><g id="Layer_2" data-name="Layer 2"><g id="Layer_1-2" data-name="Layer 1"><path class="cls-1" d="M31 1.75h-5.49a.88.88 0 0 1 0-1.75H31a.88.88 0 0 1 0 1.75z"/><path class="cls-1" d="M28.25 10a.87.87 0 0 1-.87-.87V.88a.88.88 0 0 1 1.75 0v8.21a.87.87 0 0 1-.88.91zM54.26 14.07a.87.87 0 0 1-.62-.26l-4.11-4.1a.88.88 0 0 1 1.24-1.24l4.11 4.11a.88.88 0 0 1-.62 1.49z"/><path class="cls-1" d="M46.91 17.31a.88.88 0 0 1-.62-1.49l5.29-5.29a.88.88 0 0 1 1.24 1.24l-5.29 5.29a.87.87 0 0 1-.62.25zM14.56 37.34H9.09a.88.88 0 0 1 0-1.75h5.48a.88.88 0 0 1 0 1.75zM18.67 27.76a.87.87 0 0 1-.62-.26l-4.11-4.1a.88.88 0 1 1 1.24-1.24l4.11 4.11a.88.88 0 0 1-.62 1.49zM14.56 51a.88.88 0 0 1-.62-1.49l4.11-4.11a.88.88 0 0 1 1.24 1.24l-4.11 4.11a.87.87 0 0 1-.62.25zM47.42 37.34h-5.48a.88.88 0 0 1 0-1.75h5.48a.88.88 0 0 1 0 1.75zM28.25 56.5a.87.87 0 0 1-.87-.87v-5.48a.87.87 0 0 1 1.75 0v5.48a.87.87 0 0 1-.88.87zM28.25 23.65a.87.87 0 0 1-.87-.87V17.3a.87.87 0 0 1 1.75 0v5.48a.87.87 0 0 1-.88.87zM41.94 51a.87.87 0 0 1-.62-.26l-4.11-4.11a.88.88 0 0 1 1.24-1.24l4.11 4.11a.88.88 0 0 1-.62 1.5zM37.83 27.76a.88.88 0 0 1-.62-1.49l4.11-4.11a.88.88 0 0 1 1.24 1.24l-4.11 4.1a.87.87 0 0 1-.62.26z"/><path class="cls-1" d="M28.25 64.72A28.25 28.25 0 1 1 56.5 36.46a28.28 28.28 0 0 1-28.25 28.26zm0-54.75a26.5 26.5 0 1 0 26.5 26.5A26.53 26.53 0 0 0 28.25 10z"/></g></g></svg>