<svg xmlns="http://www.w3.org/2000/svg" viewBox="0 0 80 79.64"><defs><style>.cls-1{fill:#0785c5;}</style></defs><title>Asset 15</title><g id="Layer_2" data-name="Layer 2"><g id="Layer_1-2" data-name="Layer 1"><path class="cls-1" d="M20.67 3.71a.75.75 0 0 1-.75-.71V.75a.75.75 0 0 1 1.5 0V3a.75.75 0 0 1-.75.71zM7.39 8.14a.75.75 0 0 1-.53-.22L4.65 5.71a.75.75 0 1 1 1.06-1.06l2.21 2.21a.75.75 0 0 1-.53 1.28zM34 8.14a.75.75 0 0 1-.53-1.28l2.21-2.21a.75.75 0 0 1 1.02 1.06l-2.22 2.21a.75.75 0 0 1-.48.22zM3 21.42H.75a.75.75 0 0 1 0-1.5H3a.75.75 0 0 1 0 1.5zM8.13 25.76a.75.75 0 0 1-.71-.5 13.75 13.75 0 0 1-.78-4.59 14 14 0 0 1 24.52-9.3.75.75 0 0 1-1.12 1 12.52 12.52 0 0 0-21.9 8.3 12.26 12.26 0 0 0 .7 4.09.75.75 0 0 1-.71 1z"/><path class="cls-1" d="M51.66 41.34H5.18a.75.75 0 0 1-.66-1.11l11.07-19.92a.75.75 0 0 1 .66-.39h24.34a.75.75 0 0 1 .66.39l11.07 19.92a.75.75 0 0 1-.66 1.11zm-45.21-1.5h43.94L40.15 21.42H16.69z"/><path class="cls-1" d="M31.74 52.41H25.1a.75.75 0 0 1-.75-.75V40.59a.75.75 0 0 1 .75-.75h6.64a.75.75 0 0 1 .75.75v11.07a.75.75 0 0 1-.75.75zm-5.89-1.5H31v-9.57h-5.15zM19.56 41.34h-.16a.75.75 0 0 1-.57-.9l4.43-19.92a.75.75 0 1 1 1.46.33L20.3 40.76a.75.75 0 0 1-.74.58zM37.27 41.34a.75.75 0 0 1-.73-.59l-4.43-19.92a.75.75 0 1 1 1.46-.33L38 40.43a.75.75 0 0 1-.57.9z"/><path class="cls-1" d="M12.56 26.56h31.73v1.5H12.56zM8.87 33.2h39.1v1.5H8.87zM79.25 79.64h-40.4a.75.75 0 0 1-.75-.75V54.3a.75.75 0 0 1 .75-.75h40.4a.75.75 0 0 1 .75.75v24.59a.75.75 0 0 1-.75.75zm-39.65-1.5h38.9V55.05H39.6z"/><path class="cls-1" d="M51.15 55.05h-7a.75.75 0 0 1-.75-.75V49a.75.75 0 0 1 .75-.75h7a.75.75 0 0 1 .75.75v5.3a.75.75 0 0 1-.75.75zm-6.28-1.5h5.53v-3.77h-5.53zM74 55.05h-7a.75.75 0 0 1-.75-.75V49a.75.75 0 0 1 .75-.75h7a.75.75 0 0 1 .75.75v5.3a.75.75 0 0 1-.75.75zm-6.28-1.5h5.53v-3.77H67.7zM52 65.59h-8.76a.75.75 0 0 1 0-1.5H52a.75.75 0 0 1 0 1.5zM74.86 65.59h-8.78a.75.75 0 0 1 0-1.5h8.78a.75.75 0 0 1 0 1.5z"/><path class="cls-1" d="M70.47 70a.75.75 0 0 1-.75-.75v-8.8a.75.75 0 1 1 1.5 0v8.78a.75.75 0 0 1-.75.77z"/></g></g></svg>