<svg xmlns="http://www.w3.org/2000/svg" viewBox="0 0 68.75 51.34"><defs><style>.cls-1{fill:#0785c5;}</style></defs><title>Asset 2</title><g id="Layer_2" data-name="Layer 2"><g id="Layer_1-2" data-name="Layer 1"><path class="cls-1" d="M30 20.86a1 1 0 0 1-.92-.61c0-.09-4.21-9.55-12.14-9.55H1a1 1 0 0 1 0-2h16c9.26 0 13.79 10.32 14 10.76a1 1 0 0 1-1 1.4z"/><path class="cls-1" d="M17 42.63H1a1 1 0 0 1 0-2h16c6.71 0 11.72-7.88 16.57-15.5C38.67 17.06 44 8.71 51.79 8.71h16a1 1 0 0 1 0 2h-16c-6.71 0-11.72 7.88-16.57 15.5C30.08 34.28 24.77 42.63 17 42.63z"/><path class="cls-1" d="M67.75 42.63h-16c-9.14 0-15.09-8.78-15.34-9.15a1 1 0 0 1 1.66-1.11c.06.08 5.62 8.26 13.68 8.26h16a1 1 0 0 1 0 2zM61.94 19.41a1 1 0 0 1-.83-1.55l5.43-8.15-5.43-8.15A1 1 0 1 1 62.78.45l5.8 8.71a1 1 0 0 1 0 1.11L62.78 19a1 1 0 0 1-.84.41z"/><path class="cls-1" d="M61.94 51.34a1 1 0 0 1-.83-1.55l5.43-8.15-5.43-8.15a1 1 0 1 1 1.66-1.11l5.8 8.71a1 1 0 0 1 0 1.11l-5.8 8.71a1 1 0 0 1-.83.43z"/></g></g></svg>