<svg xmlns="http://www.w3.org/2000/svg" viewBox="0 0 87.8 83.34"><defs><style>.cls-1{fill:#0785c5;}</style></defs><title>Asset 19</title><g id="Layer_2" data-name="Layer 2"><g id="Layer_1-2" data-name="Layer 1"><path class="cls-1" d="M46.61 44.88H41.4a.87.87 0 0 1-.87-.87v-1.43a11.3 11.3 0 1 1 7 0V44a.87.87 0 0 1-.92.88zm-4.34-1.75h3.46v-1.2a.88.88 0 0 1 .66-.85 9.55 9.55 0 1 0-4.77 0 .88.88 0 0 1 .66.85zM44.87 51.83h-1.74a.88.88 0 0 1 0-1.75h1.74a.88.88 0 0 1 0 1.75zM46.61 48.36H41.4a.88.88 0 1 1 0-1.75h5.21a.88.88 0 0 1 0 1.75zM44 18.82a.87.87 0 0 1-.87-.87v-3.48a.88.88 0 0 1 1.75 0v3.47a.87.87 0 0 1-.88.88zM61.38 32.72H57.9a.87.87 0 0 1 0-1.75h3.47a.87.87 0 1 1 0 1.75zM30.1 32.72h-3.47a.88.88 0 1 1 0-1.75h3.47a.87.87 0 0 1 0 1.75zM34.18 22.89a.87.87 0 0 1-.62-.26L29.87 19a.88.88 0 0 1 1.24-1.24l3.69 3.69a.88.88 0 0 1-.62 1.49zM53.83 22.89a.88.88 0 0 1-.62-1.49l3.69-3.69A.88.88 0 0 1 58.13 19l-3.69 3.69a.87.87 0 0 1-.61.2zM34.8 75.8a5.4 5.4 0 1 1 5.4-5.4 5.41 5.41 0 0 1-5.4 5.4zm0-9a3.65 3.65 0 1 0 3.65 3.65 3.65 3.65 0 0 0-3.65-3.7zM24.24 83.34A2.38 2.38 0 1 1 26.62 81a2.39 2.39 0 0 1-2.38 2.34zm0-3a.63.63 0 1 0 .63.63.63.63 0 0 0-.63-.65z"/><path class="cls-1" d="M51.22 65.42c-7.84 0-14-6-16-8.16-2.12 2.07-8.86 7.58-17.64 4.29C8 57.94 9.43 44.73 9.94 41.47c-1.86-.84-7-3.57-9.07-8.76-1.43-3.57-1.1-7.55 1-11.83a18.48 18.48 0 0 1 14.85-10.56 27.54 27.54 0 0 1 8.73.28C26.67 8.06 31.63-.53 42.22 0a16.5 16.5 0 0 1 15 10.47C60 9.59 69 7.41 75.55 13.63A16.17 16.17 0 0 1 80 29.53c2.09.6 6.74 2.74 7.67 10.09a16.79 16.79 0 0 1-5.94 14.89A11.79 11.79 0 0 1 70.11 56c-4.65 5.21-9.4 9.42-18.89 9.42zm-16-10.33a.88.88 0 0 1 .67.33c.07.08 6.78 8.26 15.29 8.26 8.26 0 12.54-3.12 18-9.25a.87.87 0 0 1 1-.23c4.85 2 8.38.53 10.48-1.08a15 15 0 0 0 5.27-13.28c-1-8.07-6.88-8.76-7.13-8.79a.88.88 0 0 1-.73-1.18 14.3 14.3 0 0 0-3.74-15C67.5 8.38 57.14 12.38 57 12.42a.88.88 0 0 1-1.17-.59c-.1-.39-2.68-9.47-13.73-10.06s-15.32 10-15.37 10.15a.88.88 0 0 1-1 .53 25.4 25.4 0 0 0-8.83-.39 16.59 16.59 0 0 0-13.48 9.59c-1.85 3.81-2.16 7.35-.93 10.4 2.21 5.54 8.68 8 8.74 8.07a.88.88 0 0 1 .55 1c0 .15-2.94 15.29 6.41 18.8s16.32-4.43 16.39-4.51a.87.87 0 0 1 .67-.32z"/></g></g></svg>