<svg xmlns="http://www.w3.org/2000/svg" viewBox="0 0 82.34 77.01"><defs><style>.cls-1{fill:#0785c5;}</style></defs><title>Asset 1</title><g id="Layer_2" data-name="Layer 2"><g id="Layer_1-2" data-name="Layer 1"><path class="cls-1" d="M9.21 55.21A3.66 3.66 0 0 1 5.6 52L0 8.79a3.65 3.65 0 0 1 3.18-4.08L39.49 0a3.65 3.65 0 0 1 4.08 3.15l5.57 43.24A3.65 3.65 0 0 1 46 50.5L9.68 55.18a3.61 3.61 0 0 1-.47.03zM40 1.7h-.25L3.4 6.39a2 2 0 0 0-1.68 2.18l5.57 43.24a2 2 0 0 0 2.18 1.68l36.31-4.68a2 2 0 0 0 1.68-2.18L41.89 3.4A2 2 0 0 0 40 1.7z"/><path class="cls-1" d="M15.13 42.29a5.57 5.57 0 0 1-5.5-4.84L6.88 16.12a5.56 5.56 0 0 1 4.8-6.22L33 7.15A5.57 5.57 0 0 1 39.22 12L42 33.28a5.57 5.57 0 0 1-4.8 6.22l-21.36 2.74a5.53 5.53 0 0 1-.71.05zM33.71 8.81a3.83 3.83 0 0 0-.49 0l-21.33 2.78a3.86 3.86 0 0 0-3.33 4.31l2.75 21.32a3.87 3.87 0 0 0 4.31 3.33l21.32-2.75a3.87 3.87 0 0 0 3.33-4.31l-2.74-21.32a3.87 3.87 0 0 0-3.82-3.36z"/><path class="cls-1" d="M62.13 77a3.62 3.62 0 0 1-1.38-.27l-33.86-13.9a3.65 3.65 0 0 1-2-4.76l2.66-6.48 1.57.65-2.66 6.47a2 2 0 0 0 1.06 2.54l33.87 13.92a2 2 0 0 0 2.54-1.06L80.5 33.78a2 2 0 0 0-1.06-2.54L45.58 17.33a2 2 0 0 0-1-.12l-.26-1.68a3.62 3.62 0 0 1 1.94.23l33.82 13.91a3.65 3.65 0 0 1 2 4.76L65.51 74.75A3.67 3.67 0 0 1 62.13 77z"/><path class="cls-1" d="M60.63 63.22a5.51 5.51 0 0 1-2.1-.42l-19.89-8.16a5.53 5.53 0 0 1-3.2-3.52l1.63-.5a3.84 3.84 0 0 0 2.22 2.45l19.89 8.17a3.87 3.87 0 0 0 5-2.1l8.17-19.89a3.87 3.87 0 0 0-2.1-5L50.39 26a3.86 3.86 0 0 0-4.18.83L45 25.67a5.55 5.55 0 0 1 6-1.2l19.89 8.17a5.57 5.57 0 0 1 3 7.25l-8.11 19.89a5.59 5.59 0 0 1-5.15 3.44z"/></g></g></svg>