<svg xmlns="http://www.w3.org/2000/svg" viewBox="0 0 87.93 61.78"><defs><style>.cls-1{fill:#0785c5;}</style></defs><title>Asset 4</title><g id="Layer_2" data-name="Layer 2"><g id="Layer_1-2" data-name="Layer 1"><path class="cls-1" d="M44 50.57a6.6 6.6 0 1 1 6.6-6.6 6.61 6.61 0 0 1-6.6 6.6zm0-11.21a4.6 4.6 0 1 0 4.6 4.6 4.61 4.61 0 0 0-4.6-4.6z"/><path class="cls-1" d="M47.93 41a1 1 0 0 1-.71-1.71l18.5-18.49a1 1 0 0 1 1.41 1.41l-18.49 18.5a1 1 0 0 1-.71.29zM15.94 46.83H8.47a1 1 0 1 1 0-2h7.47a1 1 0 1 1 0 2zM79.46 46.83H72a1 1 0 0 1 0-2h7.47a1 1 0 0 1 0 2zM69.85 34.24a1 1 0 0 1-.38-1.92l6.9-2.86a1 1 0 1 1 .76 1.85l-6.9 2.86a1 1 0 0 1-.38.07zM54.69 19.08a1 1 0 0 1-.92-1.38l2.86-6.9a1 1 0 1 1 1.85.76l-2.86 6.9a1 1 0 0 1-.93.62zM44 16.94a1 1 0 0 1-1-1V8.47a1 1 0 0 1 2 0v7.47a1 1 0 0 1-1 1zM33.24 19.08a1 1 0 0 1-.92-.62l-2.86-6.9a1 1 0 0 1 1.85-.76l2.86 6.9a1 1 0 0 1-.92 1.38zM24.15 25.15a1 1 0 0 1-.71-.29l-5.28-5.29a1 1 0 1 1 1.42-1.41l5.28 5.29a1 1 0 0 1-.71 1.71zM18.07 34.24a1 1 0 0 1-.38-.08l-6.9-2.86a1 1 0 1 1 .77-1.85l6.9 2.86a1 1 0 0 1-.38 1.92z"/><path class="cls-1" d="M86.93 61.78H1a1 1 0 0 1-1-1V44a44 44 0 1 1 87.93 0v16.78a1 1 0 0 1-1 1zM2 59.78h83.93V44A42 42 0 1 0 2 44z"/></g></g></svg>