<svg xmlns="http://www.w3.org/2000/svg" viewBox="0 0 66.25 66.25"><defs><style>.cls-1{fill:#0785c5;}</style></defs><title>Asset 13</title><g id="Layer_2" data-name="Layer 2"><g id="Layer_1-2" data-name="Layer 1"><path class="cls-1" d="M44.34 43.82a21.91 21.91 0 1 1 21.91-21.91 21.93 21.93 0 0 1-21.91 21.91zm0-42.07A20.16 20.16 0 1 0 64.5 21.91 20.18 20.18 0 0 0 44.34 1.75z"/><path class="cls-1" d="M42.94 34a.87.87 0 0 1-.87-.87v-2.8a.88.88 0 0 1 1.75 0v2.8a.87.87 0 0 1-.88.87zM42.94 14.37a.87.87 0 0 1-.87-.87v-2.8a.88.88 0 1 1 1.75 0v2.8a.87.87 0 0 1-.88.87z"/><path class="cls-1" d="M42.94 31.2a5.09 5.09 0 0 1-5.08-5.08.88.88 0 1 1 1.75 0 3.33 3.33 0 1 0 3.33-3.33A5.08 5.08 0 1 1 48 17.7a.88.88 0 1 1-1.75 0 3.33 3.33 0 1 0-3.31 3.3 5.08 5.08 0 1 1 0 10.16zM20.51 56.43a.87.87 0 0 1-.87-.87v-2.8a.88.88 0 0 1 1.75 0v2.8a.87.87 0 0 1-.88.87zM20.51 36.8a.87.87 0 0 1-.87-.87v-2.8a.87.87 0 0 1 1.75 0v2.8a.87.87 0 0 1-.88.87z"/><path class="cls-1" d="M20.51 53.63a5.09 5.09 0 0 1-5.08-5.08.88.88 0 0 1 1.75 0 3.33 3.33 0 1 0 3.33-3.33 5.08 5.08 0 1 1 5.08-5.08.88.88 0 0 1-1.75 0 3.33 3.33 0 1 0-3.33 3.33 5.08 5.08 0 1 1 0 10.16z"/><path class="cls-1" d="M21.91 66.25a21.9 21.9 0 1 1 1.54-43.74.88.88 0 0 1-.12 1.75 20 20 0 0 0-15.18 5.35 20.16 20.16 0 1 0 28.49 28.5A20 20 0 0 0 42 42.92a.88.88 0 0 1 .81-.93.89.89 0 0 1 .93.81 21.75 21.75 0 0 1-5.82 16.5 22 22 0 0 1-16.01 6.95z"/></g></g></svg>