<svg xmlns="http://www.w3.org/2000/svg" viewBox="0 0 77.55 77.53"><defs><style>.cls-1{fill:#0785c5;}</style></defs><title>Asset 6</title><g id="Layer_2" data-name="Layer 2"><path class="cls-1" d="M7.65 77.53a7.65 7.65 0 0 1-5.4-13.07l32.22-32.2A22.59 22.59 0 0 1 39 6.6a23 23 0 0 1 26.47-4.14A1 1 0 0 1 65.73 4L55.26 14.78v7.95h7.46L73.45 12a1 1 0 0 1 1.6.25 22.61 22.61 0 0 1-4.15 26.38 22.57 22.57 0 0 1-25.66 4.47L13.06 75.29a7.6 7.6 0 0 1-5.41 2.24zM55.17 2a20.88 20.88 0 0 0-14.75 6 20.59 20.59 0 0 0-3.85 24 1 1 0 0 1-.18 1.16L3.67 65.87a5.65 5.65 0 1 0 8 8l32.67-32.69A1 1 0 0 1 45.5 41a20.65 20.65 0 0 0 28.36-26.56l-10 10a1 1 0 0 1-.71.29h-8.89a1 1 0 0 1-1-1v-9.36a1 1 0 0 1 .28-.7l9.77-10A20.7 20.7 0 0 0 55.17 2z" id="Layer_1-2" data-name="Layer 1"/></g></svg>